<svg xmlns="http://www.w3.org/2000/svg" id="Layer_2" viewBox="0 0 1000 1000"><defs><style>.cls-1{fill:#fff;}.cls-2{fill:#da0000;}</style></defs><g id="Layer_1-2"><polygon class="cls-2" points="1000 1000 749.31 1000 325.14 954.16 181.68 1000 0 1000 0 756.69 124.46 703.3 0 652.26 0 0 1000 0 1000 1000"></polygon><path class="cls-1" d="M545.14,878.24h204.18v121.76H324.88c0-15.4-.3-30.64,.26-45.84,.11-2.93,3.33-5.99,5.62-8.55,73.73-82.41,147.58-164.71,221.26-247.16,18.28-20.46,36.23-41.3,46.28-67.41,8.1-21.05,9.19-42.57,2.21-64.08-6.02-18.54-19.75-29.9-38.39-32.6-14.94-2.16-30.83-2.57-45.61,.09-27.99,5.03-40.78,25.97-46.24,51.95-2.47,11.75-3.53,23.8-5.31,36.34h-137.97c2.38-16.91,3.72-33.55,7.18-49.75,12.33-57.74,42.05-103.42,95.64-130.95,42.9-22.04,89.2-27.36,136.73-24.54,33.3,1.98,65.55,8.7,95.12,24.64,62.03,33.43,87.85,87.43,87.65,156-.16,53.68-22.18,98.76-57.6,136.88-33.67,36.24-70.2,69.82-105.61,104.43-12.96,12.66-26.3,24.93-40.96,38.79Z"></path><g><path class="cls-1" d="M172.44,416.69h0s-8.51-.06,0,0Z"></path><path class="cls-1" d="M172.44,416.69h0C117.48,492.35,56.39,575.37,0,652.26v104.44c57.43,77.16,119.6,160.37,175.42,235.46,2.11,2.83,3.96,5.58,6.77,7.31h181.17c-80.13-99.33-159.42-197.62-238.91-296.16,74.02-95.37,147.65-190.24,222.3-286.43-55.65,0-120.97,.18-174.32-.18Z"></path></g><g><path class="cls-1" d="M897.01,892.76c0-12.27-9.34-22.64-20.39-22.64s-20.31,9.73-20.31,22.64v24.47h59.27v-7.66h-18.56v-16.81Zm-20.39-14.98c7.37,0,13.15,6.58,13.15,14.98v16.81h-26.22v-16.81c0-8.68,5.5-14.98,13.07-14.98Z"></path><path class="cls-1" d="M908.08,828.43l7.49-.73v-6.7h-42.62v6.69l7.51,.8c-5.59,3.56-8.76,9.3-8.76,15.98,0,11.72,9.73,20.56,22.64,20.56s22.47-8.84,22.47-20.56c0-6.72-3.17-12.48-8.74-16.05Zm-13.81,.23c9.12,0,15.48,5.78,15.48,14.07s-6.51,14.65-15.48,14.65-15.56-6.02-15.56-14.65,6.4-14.07,15.56-14.07Z"></path><path class="cls-1" d="M871.71,782.47v.5c0,8.19,4.66,14.94,12.88,18.79l-11.63,.8v6.71h42.62v-7.66h-12.32c-14.53,0-23.56-7.14-23.56-18.64v-.5h-7.99Z"></path><path class="cls-1" d="M909.5,749.34c0,8.52-4.16,12.15-13.9,12.15h-15.4v-12.65h-7.24v12.65h-9.32v3.46l13.03,12.94h3.54v-8.74h15.4c14.48,0,21.23-6.29,21.23-19.81v-.5h-7.33v.5Z"></path><path class="cls-1" d="M894.51,705.97h21.06v-7.66h-21.06c-13.43,0-22.81,7.67-22.81,18.65,0,6.37,2.98,11.72,8.43,15.22l-7.18,.73v6.7h42.62v-7.66h-21.06c-9.31,0-15.56-5.22-15.56-12.98s6.11-12.98,15.56-12.98Z"></path><path class="cls-1" d="M903.45,646.83l-.69-.29v7.87l.25,.14c4.76,2.76,7.49,7.45,7.49,12.89,0,7.38-5.65,13.08-13.82,14.01v-35.99h-.5c-.33,0-.64-.02-.94-.04-.3-.02-.6-.04-.89-.04-13.33,0-22.64,9.07-22.64,22.06s9.52,21.81,22.64,21.81,22.47-9.38,22.47-21.81c0-9.36-5-17.06-13.37-20.6Zm-11.6,6.34v28.28c-8.06-.93-13.65-6.63-13.65-14.01,0-7.79,5.34-13.34,13.65-14.26Z"></path><path class="cls-1" d="M872.95,636.39h42.62v-7.66h-12.32c-14.53,0-23.56-7.14-23.56-18.64v-.5h-7.99v.5c0,8.19,4.66,14.94,12.88,18.79l-11.63,.8v6.71Z"></path><path class="cls-1" d="M863.13,597.6c0-2.44-1.61-4.08-4-4.08s-4.08,1.64-4.08,4.08,1.64,4,4.08,4,4-1.64,4-4Z"></path><rect class="cls-1" x="872.95" y="593.77" width="42.62" height="7.66"></rect><path class="cls-1" d="M894.51,547.74h21.06v-7.66h-21.06c-13.43,0-22.81,7.67-22.81,18.65,0,6.37,2.98,11.72,8.43,15.22l-7.18,.73v6.7h42.62v-7.66h-21.06c-9.31,0-15.56-5.22-15.56-12.98s6.11-12.98,15.56-12.98Z"></path><path class="cls-1" d="M913.99,487.23h-41.04v6.78l7.2,.65c-5.39,3.62-8.45,9.41-8.45,16.12,0,11.58,9.55,20.31,22.22,20.31s22.22-8.73,22.22-20.31c0-6.54-2.99-12.24-8.27-15.9h6.1c9.07,0,15.4,5.61,15.4,13.65,0,6.32-3.55,11.4-9.5,13.6l-.33,.12v7.57l.62-.16c9.94-2.57,16.36-10.86,16.36-21.13,0-12.35-9.49-21.31-22.56-21.31Zm-20.06,36.21c-8.83,0-15.23-6.06-15.23-14.4s6.26-14.15,15.23-14.15,15.07,5.69,15.07,14.15-6.34,14.4-15.07,14.4Z"></path><path class="cls-1" d="M871.21,456.51c13.63,0,15.64-11.82,17.42-22.25,1.59-9.32,2.96-17.37,11.3-17.37,5.84,0,10.07,6.44,10.07,15.32s-4.58,16.13-11.66,17.4l-.41,.07v7.87l.55-.05c10.98-1.01,18.35-11.28,18.35-25.55,0-13.17-7-22.72-16.65-22.72-15.04,0-17.13,12.5-18.98,23.52-1.45,8.64-2.69,16.1-9.74,16.1-5.59,0-9.65-6.44-9.65-15.32,0-8.07,4.29-14.62,10.42-15.91l.4-.08v-7.8l-.56,.07c-10.17,1.29-17,10.82-17,23.72,0,13.53,6.64,22.97,16.15,22.97Z"></path><path class="cls-1" d="M894.35,403.08c12.81,0,22.47-9.63,22.47-22.39s-9.24-22.64-22.47-22.64-22.64,9.31-22.64,22.64,9.73,22.39,22.64,22.39Zm-.08-37.37c9.11,0,15.23,6.02,15.23,14.98,0,8.4-6.55,14.73-15.23,14.73s-15.31-6.33-15.31-14.73c0-8.96,6.15-14.98,15.31-14.98Z"></path><rect class="cls-1" x="856.31" y="341.73" width="59.27" height="7.66"></rect><path class="cls-1" d="M908.37,296.05l7.2-.73v-6.7h-42.62v7.66h21.06c9.26,0,15.48,5.25,15.48,13.07s-6.22,12.9-15.48,12.9h-21.06v7.66h21.06c13.22,0,22.81-7.81,22.81-18.56,0-6.28-3.06-11.78-8.45-15.3Z"></path><path class="cls-1" d="M880.2,279.72v-8.74h15.4c14.48,0,21.23-6.29,21.23-19.81v-.5h-7.33v.5c0,8.52-4.16,12.15-13.9,12.15h-15.4v-12.65h-7.24v12.65h-9.32v3.46l13.03,12.94h3.54Z"></path><path class="cls-1" d="M859.14,241.01c2.35,0,4-1.64,4-4s-1.61-4.08-4-4.08-4.08,1.64-4.08,4.08,1.64,4,4.08,4Z"></path><rect class="cls-1" x="872.95" y="233.19" width="42.62" height="7.66"></rect><path class="cls-1" d="M894.35,223.62c12.81,0,22.47-9.63,22.47-22.39s-9.24-22.64-22.47-22.64-22.64,9.31-22.64,22.64,9.73,22.39,22.64,22.39Zm-.08-37.37c9.11,0,15.23,6.02,15.23,14.98,0,8.4-6.55,14.73-15.23,14.73s-15.31-6.33-15.31-14.73c0-8.96,6.15-14.98,15.31-14.98Z"></path><path class="cls-1" d="M880.14,162.51l-7.18,.73v6.7h42.62v-7.66h-21.06c-9.31,0-15.56-5.22-15.56-12.98s6.11-12.98,15.56-12.98h21.06v-7.66h-21.06c-13.43,0-22.81,7.67-22.81,18.65,0,6.37,2.98,11.72,8.43,15.22Z"></path><path class="cls-1" d="M884.44,118.24c9.42,0,10.93-8.42,12.25-15.86,1.14-6.37,2.12-11.86,7.39-11.86,3.73,0,6.66,4.17,6.66,9.49,0,7.24-2.52,11.36-7.49,12.24l-.41,.07v7.31l.56-.07c8.41-.99,13.43-8.27,13.43-19.47,0-9.79-5.39-16.9-12.82-16.9-10.23,0-11.63,8.67-12.88,16.31-.99,6.08-1.84,11.32-6.77,11.32-3.67,0-6.66-4.14-6.66-9.24,0-6.42,2.88-10.47,7.69-10.82l.46-.03v-7.17l-.54,.04c-8.52,.69-13.61,7.38-13.61,17.89,0,9.54,5.48,16.73,12.74,16.73Z"></path></g></g></svg>